<?xml version="1.0" encoding="UTF-8" standalone="no"?>
<svg width="63px" height="70px" viewBox="0 0 63 70" version="1.1" xmlns="http://www.w3.org/2000/svg" xmlns:xlink="http://www.w3.org/1999/xlink">
    <defs></defs>
    <g id="Welcome" stroke="none" stroke-width="1" fill="none" fill-rule="evenodd">
        <g id="Desktop-HD-Copy-7" transform="translate(-313.000000, -2561.000000)">
            <g id="Group-3" transform="translate(313.000000, 2561.000000)">
                <path d="M4.33069065,14.3091176 L27.1278589,1.15970588 C29.8074196,-0.386176471 33.1093262,-0.386176471 35.7894757,1.15970588 L58.5860551,14.3091176 C61.2662047,15.855 62.9171579,18.7114706 62.9171579,21.8032353 L62.9171579,48.1026471 C62.9171579,51.1938235 61.2662047,54.0508824 58.5860551,55.5961765 L35.7894757,68.7461765 C33.1093262,70.2920588 29.8074196,70.2920588 27.1278589,68.7461765 L4.33069065,55.5961765 C1.65054112,54.0508824 0.000176635514,51.1938235 0.000176635514,48.1026471 L0.000176635514,21.8032353 C0.000176635514,18.7114706 1.65054112,15.855 4.33069065,14.3091176 L4.33069065,14.3091176 Z" id="Stroke-1" fill="#FCD000"></path>
                <path d="M35.2894639,43.2980079 C35.419363,43.7163841 35.2003596,44.162059 34.7901117,44.3157678 C33.4383639,44.8221748 32.1654835,45 30.5169003,45 C25.9854627,45 22,41.7521017 22,36.4007818 C21.9999617,30.8325672 26.0400986,26 32.2094605,26 C37.0141922,26 40.4541402,29.303301 40.4541402,33.8899494 C40.4541402,37.8754505 38.2154901,40.3862061 35.2673029,40.3862061 C33.9845688,40.3862061 33.0554147,39.7314965 32.9198796,38.2846249 L32.8653204,38.2846249 C32.0181776,39.6773207 30.7901561,40.3862061 29.3432845,40.3862061 C27.5681762,40.3862061 26.2854805,39.0760583 26.2854805,36.8374849 C26.2854805,33.5078821 28.7428272,30.4768017 32.6740375,30.4768017 C33.3286705,30.4768017 34.0327633,30.5660594 34.6482502,30.7093011 C35.380562,30.8796882 35.853459,31.5867716 35.7331068,32.3289369 L35.1038938,36.2094989 C34.8301396,37.8212364 35.0213841,38.5579957 35.7859789,38.584681 C36.9599398,38.6125932 38.4334583,37.110779 38.4334583,33.9712705 C38.4334583,30.4225493 36.1406325,27.6648014 31.9093661,27.6648014 C27.7326205,27.6648014 24.0740141,30.9413787 24.0740141,36.1552848 C24.0740141,40.7140978 26.9959379,43.3080916 31.0627217,43.3080916 C32.1449327,43.3080916 33.2760668,43.1262022 34.2392676,42.7765329 C34.4473054,42.7010396 34.677121,42.7140756 34.8753819,42.8123817 C35.0736428,42.9107262 35.2235175,43.0858675 35.2891572,43.2972411 L35.2894639,43.2980079 L35.2894639,43.2980079 Z M33.0832119,32.7431339 C32.8652054,32.6885748 32.5918729,32.6339773 32.2372577,32.6339773 C30.4345823,32.6339773 29.0152779,34.408012 29.0152779,36.5106285 C29.0152779,37.5478656 29.4798549,38.2021152 30.3799848,38.2021152 C31.3901149,38.2021152 32.4551875,36.9198796 32.7006461,35.3359775 L33.0832119,32.7431339 L33.0832119,32.7431339 Z" id="XMLID_117_" fill="#FFFFFF"></path>
            </g>
        </g>
    </g>
</svg>
