<?xml version="1.0" encoding="UTF-8" standalone="no"?>
<svg width="67px" height="74px" viewBox="0 0 67 74" version="1.1" xmlns="http://www.w3.org/2000/svg" xmlns:xlink="http://www.w3.org/1999/xlink">
    <defs>
        <path d="M4.33069065,14.3091176 L27.1278589,1.15970588 C29.8074196,-0.386176471 33.1093262,-0.386176471 35.7894757,1.15970588 L58.5860551,14.3091176 C61.2662047,15.855 62.9171579,18.7114706 62.9171579,21.8032353 L62.9171579,48.1026471 C62.9171579,51.1938235 61.2662047,54.0508824 58.5860551,55.5961765 L35.7894757,68.7461765 C33.1093262,70.2920588 29.8074196,70.2920588 27.1278589,68.7461765 L4.33069065,55.5961765 C1.65054112,54.0508824 0.000176635514,51.1938235 0.000176635514,48.1026471 L0.000176635514,21.8032353 C0.000176635514,18.7114706 1.65054112,15.855 4.33069065,14.3091176 L4.33069065,14.3091176 Z" id="path-1"></path>
        <mask id="mask-2" maskContentUnits="userSpaceOnUse" maskUnits="objectBoundingBox" x="-2" y="-2" width="66.9169813" height="73.9052941">
            <rect x="-1.99982336" y="-1.99970588" width="66.9169813" height="73.9052941" fill="white"></rect>
            <use xlink:href="#path-1" fill="black"></use>
        </mask>
    </defs>
    <g id="Welcome" stroke="none" stroke-width="1" fill="none" fill-rule="evenodd">
        <g id="Desktop-HD-Copy-7" transform="translate(-309.000000, -211.000000)">
            <g id="Page-1" transform="translate(311.000000, 213.000000)">
                <g id="Stroke-1">
                    <use fill="#95DAF7" fill-rule="evenodd" xlink:href="#path-1"></use>
                    <use stroke="#28262C" mask="url(#mask-2)" stroke-width="4" stroke-linejoin="round" xlink:href="#path-1"></use>
                </g>
                <path d="M32.0992654,18.9304706 C29.8877888,16.0692941 26.4357421,14.2287059 22.5568262,14.2287059 C15.8817701,14.2287059 10.4702467,19.6798824 10.4702467,26.404 C10.4702467,33.1281176 15.8817701,38.5792941 22.5568262,38.5792941 C25.8457794,38.5792941 28.8279757,37.2563529 31.0070692,35.1092941 C31.0070692,35.1092941 32.2588262,33.7763529 32.5591065,33.2892941 L32.5602841,33.2904706 C32.7993308,32.9669412 32.9406393,32.5669412 32.9406393,32.134 C32.9406393,31.0563529 32.0662935,30.1828235 30.9876393,30.1828235 C29.908985,30.1828235 29.0346393,31.0563529 29.0346393,32.134 L29.0346393,50.4175294 C29.0346393,53.3216471 31.3915458,55.6763529 34.2989664,55.6763529 C37.2063869,55.6763529 39.5632935,53.3216471 39.5632935,50.4169412 C39.5632935,53.3216471 41.9202,55.6763529 44.8276206,55.6763529 C47.7350411,55.6763529 50.0919477,53.3216471 50.0919477,50.4175294 L50.0919477,32.134" id="logo-svg-path" stroke="#28262C" stroke-width="2" stroke-linejoin="round"></path>
            </g>
        </g>
    </g>
</svg>
